<?xml version="1.0" encoding="UTF-8" standalone="no"?>
<!-- Created with Inkscape (http://www.inkscape.org/) -->

<svg
   width="32.703476mm"
   height="10.879585mm"
   viewBox="0 0 32.703476 10.879585"
   version="1.1"
   id="svg1"
   inkscape:version="1.2.2 (732a01da63, 2022-12-09)"
   sodipodi:docname="wtz2.svg"
   inkscape:export-filename="wtz2.pdf"
   inkscape:export-xdpi="96"
   inkscape:export-ydpi="96"
   xmlns:inkscape="http://www.inkscape.org/namespaces/inkscape"
   xmlns:sodipodi="http://sodipodi.sourceforge.net/DTD/sodipodi-0.dtd"
   xmlns="http://www.w3.org/2000/svg"
   xmlns:svg="http://www.w3.org/2000/svg">
  <sodipodi:namedview
     id="namedview1"
     pagecolor="#ffffff"
     bordercolor="#666666"
     borderopacity="1.0"
     inkscape:showpageshadow="2"
     inkscape:pageopacity="0.0"
     inkscape:pagecheckerboard="0"
     inkscape:deskcolor="#d1d1d1"
     inkscape:document-units="mm"
     inkscape:zoom="3.2731068"
     inkscape:cx="109.98725"
     inkscape:cy="56.979503"
     inkscape:window-width="1915"
     inkscape:window-height="1134"
     inkscape:window-x="312"
     inkscape:window-y="312"
     inkscape:window-maximized="0"
     inkscape:current-layer="layer1"
     showgrid="true">
    <inkscape:grid
       id="grid1"
       units="px"
       originx="-11.083329"
       originy="-8.3083649"
       spacingx="0.26458333"
       spacingy="0.26458333"
       empcolor="#3f3fff"
       empopacity="0.25098039"
       color="#3f3fff"
       opacity="0.1254902"
       empspacing="5"
       dotted="false"
       gridanglex="30"
       gridanglez="30"
       visible="true" />
  </sodipodi:namedview>
  <defs
     id="defs1">
    <clipPath
       id="clipPath2111">
      <path
         clip-rule="nonzero"
         d="m 6,2 h 5 V 7.265625 H 6 Z m 0,0"
         id="path8006" />
    </clipPath>
    <clipPath
       id="clipPath7140">
      <path
         clip-rule="nonzero"
         d="m 12,2 h 6 v 5.265625 h -6 z m 0,0"
         id="path7384" />
    </clipPath>
    <clipPath
       id="clipPath4701">
      <path
         clip-rule="nonzero"
         d="M 0,0 H 5.898438 V 3 H 0 Z m 0,0"
         id="path582" />
    </clipPath>
    <clipPath
       id="clipPath7121">
      <path
         clip-rule="nonzero"
         d="m 7,3 h 6 V 8.789063 H 7 Z m 0,0"
         id="path3498" />
    </clipPath>
    <clipPath
       id="clipPath3228">
      <path
         clip-rule="nonzero"
         d="m 15,3 h 5 v 5.789063 h -5 z m 0,0"
         id="path1445" />
    </clipPath>
  </defs>
  <g
     inkscape:label="Layer 1"
     inkscape:groupmode="layer"
     id="layer1"
     transform="translate(-11.083329,-8.3083653)">
    <path
       style="fill:none;stroke:#000000;stroke-width:0.264583px;stroke-linecap:butt;stroke-linejoin:miter;stroke-opacity:1"
       d="m 14.552083,13.229166 1.322916,1.322916"
       id="path1" />
    <path
       style="fill:none;stroke:#000000;stroke-width:0.264583px;stroke-linecap:butt;stroke-linejoin:miter;stroke-opacity:1"
       d="m 14.552083,14.552082 1.322916,-1.322916"
       id="path2" />
    <path
       style="fill:none;stroke:#000000;stroke-width:0.264583px;stroke-linecap:butt;stroke-linejoin:miter;stroke-opacity:1"
       d="m 35.765778,13.087675 1.322916,1.322916"
       id="path1-5" />
    <path
       style="fill:none;stroke:#000000;stroke-width:0.264583px;stroke-linecap:butt;stroke-linejoin:miter;stroke-opacity:1"
       d="m 35.765778,14.410591 1.322916,-1.322916"
       id="path2-1" />
    <path
       style="fill:none;stroke:#ff0000;stroke-width:0.264583px;stroke-linecap:butt;stroke-linejoin:miter;stroke-opacity:1"
       d="M 13.257027,18.834678 C 8.3260597,17.54131 12.859291,4.9553156 21.178909,9.3769217 26.91493,12.42543 19.54158,20.483086 13.257027,18.834678 Z"
       id="path3"
       sodipodi:nodetypes="sss" />
    <g
       inkscape:label=""
       transform="translate(16.409579,14.186649)"
       id="g435">
      <g
         fill="#000000"
         fill-opacity="1"
         id="g19"
         transform="matrix(0.352778,0,0,0.352778,-0.159411,0.0312649)">
        <g
           id="use17"
           transform="translate(0.155,5.177)">
          <path
             d="M 8.078125,-5.265625 H 3.71875 c -1.8125,0 -3.421875,1.5 -3.421875,3.515625 0,1.203125 0.640625,1.875 1.859375,1.875 1.484375,0 3.3125,-1.421875 3.3125,-3.546875 0,-0.671875 -0.234375,-0.9375 -0.234375,-0.953125 H 7.84375 Z m -3.53125,1.859375 c 0,1.78125 -0.984375,3.234375 -2.21875,3.234375 -0.921875,0 -1.03125,-1.1875 -1.03125,-1.546875 0,-2.3125 1.21875,-3.234375 2.109375,-3.234375 0.4375,0 1.140625,0.125 1.140625,1.546875 z m 0,0"
             id="path31" />
        </g>
      </g>
      <g
         clip-path="url(#clipPath7121)"
         id="g25"
         transform="matrix(0.352778,0,0,0.352778,-0.159411,0.0312649)">
        <g
           fill="#000000"
           fill-opacity="1"
           id="g23">
          <g
             id="use21"
             transform="translate(8.1960001,6.9699998)">
            <path
               d="m 4.109375,-2.765625 c 0,-0.6875 -0.375,-1.09375 -1,-1.09375 -0.578125,0 -1,0.28125 -1.5,0.984375 L 1.875,-3.828125 c 0,0 -0.015625,-0.03125 -0.046875,-0.03125 l -1.359375,0.1875 0.015625,0.125 c 0.265625,0 0.578125,0 0.578125,0.25 0,0.09375 -0.3125,1.3125 -0.625,2.46875 l -0.5,1.96875 c -0.09375,0.40625 -0.21875,0.5 -0.59375,0.515625 v 0.140625 h 1.796875 v -0.125 c -0.40625,0 -0.5625,-0.078125 -0.5625,-0.265625 0,-0.125 0.15625,-0.78125 0.328125,-1.453125 0.21875,0.109375 0.375,0.140625 0.578125,0.140625 1.28125,0 2.625,-1.46875 2.625,-2.859375 z M 3.328125,-2.75 c 0,0.578125 -0.25,1.3125 -0.609375,1.84375 -0.375,0.5625 -0.8125,0.84375 -1.265625,0.84375 -0.25,0 -0.421875,-0.140625 -0.421875,-0.328125 0,-0.296875 0.296875,-1.4375 0.5625,-2.09375 0.234375,-0.578125 0.71875,-1 1.15625,-1 0,0 0.015625,0 0.03125,0 C 3.15625,-3.46875 3.328125,-3.25 3.328125,-2.75 Z m 0,0"
               id="path35" />
          </g>
        </g>
      </g>
    </g>
    <g
       inkscape:label=""
       transform="translate(37.02264,14.752498)"
       id="g514">
      <g
         fill="#000000"
         fill-opacity="1"
         id="g505"
         transform="matrix(0.352778,0,0,0.352778,-0.259071,0.0312649)">
        <g
           id="g503"
           transform="translate(0,5.177)">
          <path
             d="M 6.859375,-2.734375 V -3.40625 h -6.125 v 0.671875 z m 0,0"
             id="path39" />
        </g>
      </g>
      <g
         fill="#000000"
         fill-opacity="1"
         id="g27"
         transform="matrix(0.352778,0,0,0.352778,-0.259071,0.0312649)">
        <g
           id="use25"
           transform="translate(7.7589998,5.177)">
          <path
             d="M 8.078125,-5.265625 H 3.71875 c -1.8125,0 -3.421875,1.5 -3.421875,3.515625 0,1.203125 0.640625,1.875 1.859375,1.875 1.484375,0 3.3125,-1.421875 3.3125,-3.546875 0,-0.671875 -0.234375,-0.9375 -0.234375,-0.953125 H 7.84375 Z m -3.53125,1.859375 c 0,1.78125 -0.984375,3.234375 -2.21875,3.234375 -0.921875,0 -1.03125,-1.1875 -1.03125,-1.546875 0,-2.3125 1.21875,-3.234375 2.109375,-3.234375 0.4375,0 1.140625,0.125 1.140625,1.546875 z m 0,0"
             id="path43" />
        </g>
      </g>
      <g
         clip-path="url(#clipPath3228)"
         id="g33"
         transform="matrix(0.352778,0,0,0.352778,-0.259071,0.0312649)">
        <g
           fill="#000000"
           fill-opacity="1"
           id="g31">
          <g
             id="use29"
             transform="translate(15.799,6.9699998)">
            <path
               d="m 4.109375,-2.765625 c 0,-0.6875 -0.375,-1.09375 -1,-1.09375 -0.578125,0 -1,0.28125 -1.5,0.984375 L 1.875,-3.828125 c 0,0 -0.015625,-0.03125 -0.046875,-0.03125 l -1.359375,0.1875 0.015625,0.125 c 0.265625,0 0.578125,0 0.578125,0.25 0,0.09375 -0.3125,1.3125 -0.625,2.46875 l -0.5,1.96875 c -0.09375,0.40625 -0.21875,0.5 -0.59375,0.515625 v 0.140625 h 1.796875 v -0.125 c -0.40625,0 -0.5625,-0.078125 -0.5625,-0.265625 0,-0.125 0.15625,-0.78125 0.328125,-1.453125 0.21875,0.109375 0.375,0.140625 0.578125,0.140625 1.28125,0 2.625,-1.46875 2.625,-2.859375 z M 3.328125,-2.75 c 0,0.578125 -0.25,1.3125 -0.609375,1.84375 -0.375,0.5625 -0.8125,0.84375 -1.265625,0.84375 -0.25,0 -0.421875,-0.140625 -0.421875,-0.328125 0,-0.296875 0.296875,-1.4375 0.5625,-2.09375 0.234375,-0.578125 0.71875,-1 1.15625,-1 0,0 0.015625,0 0.03125,0 C 3.15625,-3.46875 3.328125,-3.25 3.328125,-2.75 Z m 0,0"
               id="path47" />
          </g>
        </g>
      </g>
    </g>
    <g
       inkscape:label=""
       transform="translate(29.100758,13.054952)"
       id="g611">
      <g
         fill="#000000"
         fill-opacity="1"
         id="g12"
         transform="matrix(0.352778,0,0,0.352778,-0.170877,-0.00198429)">
        <g
           id="use10"
           transform="translate(0,4.6149998)">
          <path
             d="M 6.59375,-3.9375 V -4.609375 H 0.484375 V -3.9375 Z m 0,2.421875 V -2.1875 H 0.484375 v 0.671875 z m 0,0"
             id="path18" />
        </g>
      </g>
    </g>
  </g>
</svg>
